<svg width="20" height="20" viewBox="0 0 28 28" fill="none" xmlns="http://www.w3.org/2000/svg">
    <circle cx="13.9993" cy="13.9998" r="13.3333" fill="url(#paint0_linear_13074_33178)"/>
    <path d="M20.5272 12.1867C20.4443 12.0988 20.3333 12.0459 20.2155 12.0381L16.1907 11.4258L14.4109 7.61113C14.2928 7.36305 14.0048 7.26216 13.7676 7.38583C13.6743 7.43445 13.5987 7.51357 13.5523 7.61113L11.7533 11.4308L7.74291 12.0381C7.48075 12.0779 7.299 12.3326 7.33707 12.607C7.35236 12.7173 7.40231 12.8191 7.47907 12.8964L10.3909 15.8679L9.66177 20.064C9.61836 20.3375 9.79501 20.596 10.0563 20.6414C10.1592 20.6593 10.2649 20.6416 10.3574 20.591L13.9792 18.6134L17.5819 20.596C17.8097 20.7374 18.104 20.6588 18.2392 20.4204C18.3 20.3132 18.3204 20.1861 18.2966 20.064L17.6106 15.8679L20.5225 12.8964C20.7112 12.7018 20.7132 12.384 20.5272 12.1867Z" fill="white"/>
    <defs>
    <linearGradient id="paint0_linear_13074_33178" x1="27.3327" y1="-12.0002" x2="9.99935" y2="13.9998" gradientUnits="userSpaceOnUse">
    <stop stop-color="#FCFCFD" stop-opacity="0.6"/>
    <stop offset="1" stop-color="#D1001F"/>
    </linearGradient>
    </defs>
</svg>
    